PathFileType	3	(X/Y/Z)	D:\VICON_DB\Goncalves\Pilot01\09-03-2026\bw_sq_140_01.trc
DataRate	CameraRate	NumFrames	NumMarkers	Units	OrigDataRate	OrigDataStartFrame	OrigNumFrames
200.0	200.0	12	34	mm	200.0	229	913	
Frame#	Time	LASI			RASI			LPSI			RPSI			LTHI			LTHAP			LTHAD			LKNE			LKNM			LTIB			LTIAP			LTIAD			LANK			LMED			LHEE			LTOE			LFMH			LSMH			LVMH			RTHI			RTHAP			RTHAD			RKNE			RKNM			RTIB			RTIAP			RTIAD			RANK			RMED			RHEE			RTOE			RFMH			RSMH			RVMH			
		X1	Y1	Z1	X2	Y2	Z2	X3	Y3	Z3	X4	Y4	Z4	X5	Y5	Z5	X6	Y6	Z6	X7	Y7	Z7	X8	Y8	Z8	X9	Y9	Z9	X10	Y10	Z10	X11	Y11	Z11	X12	Y12	Z12	X13	Y13	Z13	X14	Y14	Z14	X15	Y15	Z15	X16	Y16	Z16	X17	Y17	Z17	X18	Y18	Z18	X19	Y19	Z19	X20	Y20	Z20	X21	Y21	Z21	X22	Y22	Z22	X23	Y23	Z23	X24	Y24	Z24	X25	Y25	Z25	X26	Y26	Z26	X27	Y27	Z27	X28	Y28	Z28	X29	Y29	Z29	X30	Y30	Z30	X31	Y31	Z31	X32	Y32	Z32	X33	Y33	Z33	X34	Y34	Z34	
229	1.14	176.37347	783.88007	-1093.9491	171.34406	788.53339	-1353.6182				362.52405	858.58313	-1255.3997	173.71431	676.63989	-990.81323	211.02199	721.52704	-1019.0258	196.85283	621.71045	-933.18567	163.50253	471.9899	-875.52222				218.51921	284.81537	-839.88336	125.16746	345.12918	-860.44556	175.03265	249.81708	-835.23932	263.52805	76.064613	-840.94934				275.92694	63.241631	-907.50824	186.11281	71.675751	-818.51208	124.70694	45.058353	-814.2038				172.81288	24.599388	-749.1098	184.40439	621.91626	-1507.1404	180.93074	721.5802	-1422.7097	134.98775	658.33563	-1452.999	159.34827	485.29181	-1546.9833				193.23982	296.47766	-1590.8793	117.90396	332.95822	-1567.4373	142.1178	252.8638	-1571.9692	262.01535	64.563385	-1570.6907				271.40372	59.302837	-1516.86	176.9028	71.111931	-1604.0717	120.6349	51.534039	-1609.5808				167.59892	22.436562	-1665.1187
230	1.145	177.60167	781.04315	-1094.1216	172.28902	785.7926	-1353.8351				363.27866	856.48621	-1255.7428	175.01556	675.76807	-990.72662	212.55142	720.13312	-1019.1268	197.77579	620.88348	-932.86163	163.23213	471.74411	-874.35376				218.08896	284.61118	-839.05975	124.5627	344.88718	-859.27319	174.69525	249.51743	-834.49799	263.47116	76.009087	-840.82556				275.91159	63.313984	-907.41742	186.13397	71.667595	-818.45093	124.72282	45.064526	-814.17615				172.82162	24.586138	-749.09039	184.5843	620.94495	-1507.6671	181.89836	720.20099	-1422.8965	135.49852	657.54736	-1453.3083	158.35294	484.78058	-1548.2225				192.24355	296.11905	-1591.8184	116.74088	332.41977	-1568.522	141.31068	252.37888	-1572.7114	261.93521	64.55616	-1570.7688				271.3252	59.385582	-1516.9434	176.85205	71.074966	-1604.1288	120.60687	51.499718	-1609.5975				167.5959	22.39802	-1665.155
231	1.15	178.82903	778.17981	-1094.2916	173.21948	783.01678	-1354.045				364.01651	854.35968	-1256.0912	176.32547	674.87085	-990.65192	214.08696	718.71625	-1019.2214	198.7016	620.02844	-932.55609	162.96414	471.4856	-873.21332				217.65607	284.40512	-838.2533	123.95774	344.63889	-858.13214	174.35422	249.21721	-833.77661	263.41412	75.955261	-840.70636				275.89655	63.38401	-907.33057	186.15385	71.66111	-818.39423	124.73816	45.069405	-814.15118				172.82959	24.574905	-749.07373	184.78592	619.94904	-1508.1814	182.86406	718.79694	-1423.0803	136.02144	656.74219	-1453.62	157.38866	484.25626	-1549.4473				191.26738	295.75873	-1592.7452	115.59814	331.883	-1569.5995	140.51762	251.89677	-1573.4482	261.85495	64.550781	-1570.8435				271.24387	59.468506	-1517.024	176.79977	71.037605	-1604.1819	120.57938	51.462185	-1609.6089				167.59203	22.362724	-1665.1891
232	1.155	180.05452	775.29327	-1094.4578	174.13544	780.20782	-1354.2463				364.73776	852.20526	-1256.4448	177.63957	673.94952	-990.58997	215.62506	717.2785	-1019.311	199.62576	619.14807	-932.26929	162.69632	471.21524	-872.1015				217.22011	284.19754	-837.46515	123.352	344.38477	-857.02264	174.00897	248.9169	-833.0752	263.35773	75.902954	-840.59271				275.88138	63.4519	-907.24792	186.17184	71.655983	-818.34253	124.75263	45.073032	-814.12921				172.83675	24.565765	-749.05994	185.0098	618.92908	-1508.6844	183.82779	717.36816	-1423.261	136.5571	655.92059	-1453.9341	156.45593	483.71951	-1550.6577				190.31296	295.39709	-1593.6592	114.47671	331.34897	-1570.6702	139.73981	251.41814	-1574.1797	261.7746	64.547363	-1570.9144				271.16003	59.551651	-1517.1016	176.74664	70.999382	-1604.2302	120.55231	51.421616	-1609.615				167.58745	22.330412	-1665.2208
233	1.16	181.2767	772.38666	-1094.6185	175.03694	777.36731	-1354.4384				365.44293	850.0246	-1256.8031	178.95329	673.00555	-990.54163	217.16183	715.82196	-1019.3967	200.54379	618.24567	-932.00098	162.42694	470.93454	-871.01819				216.78117	283.98862	-836.69653	122.74522	344.12534	-855.94446	173.65939	248.61693	-832.39337	263.30261	75.851799	-840.48541				275.8656	63.51783	-907.16962	186.18718	71.651855	-818.2962	124.76595	45.075462	-814.1106				172.84319	24.558762	-749.04895	185.25621	617.88531	-1509.1768	184.78964	715.91534	-1423.4391	137.10614	655.08282	-1454.2506	155.55473	483.1712	-1551.8546				189.38159	295.03452	-1594.5593	113.37738	330.81854	-1571.7338	138.97832	250.9437	-1574.9054	261.69424	64.545921	-1570.9817				271.07428	59.634975	-1517.1755	176.6933	70.959885	-1604.274	120.52564	51.378147	-1609.6163				167.58246	22.300724	-1665.251
234	1.165	182.49388	769.46295	-1094.7736	175.92439	774.49725	-1354.6202				366.13281	847.81836	-1257.1656	180.26186	672.04047	-990.50781	218.69319	714.34894	-1019.4806	201.45143	617.32428	-931.75098	162.15474	470.64496	-869.9624				216.33983	283.7782	-835.94812	122.13738	343.86108	-854.89655	173.30576	248.31766	-831.73022	263.24927	75.801353	-840.38519				275.84885	63.581875	-907.09589	186.19928	71.648338	-818.25549	124.77787	45.076721	-814.09546				172.84897	24.553896	-749.04059	185.52522	616.8183	-1509.6589	185.74982	714.4389	-1423.6158	137.66898	654.22919	-1454.5695	154.68456	482.61243	-1553.0382				188.47449	294.67126	-1595.4451	112.30067	330.29245	-1572.7902	138.23412	250.47389	-1575.6251	261.61395	64.546379	-1571.0458				270.98715	59.718277	-1517.2461	176.64037	70.9188	-1604.3134	120.4995	51.331837	-1609.6133				167.57738	22.273203	-1665.2799
235	1.17	183.70384	766.52484	-1094.9214	176.79834	771.59985	-1354.7917				366.80872	845.5874	-1257.531	181.5605	671.05554	-990.4895	220.21494	712.86108	-1019.565	202.34474	616.38757	-931.51855	161.87891	470.34845	-868.9325				215.89723	283.56592	-835.2204	121.52858	343.59253	-853.87701	172.94872	248.01924	-831.08453	263.19791	75.751114	-840.29242				275.83075	63.644051	-907.02679	186.20781	71.645103	-818.22052	124.78821	45.076832	-814.08398				172.85425	24.551094	-749.03491	185.81647	615.72906	-1510.1311	186.70869	712.94006	-1423.7915	138.24602	653.35986	-1454.8901	153.84451	482.04474	-1554.2104				187.5923	294.30768	-1596.3159	111.24702	329.77106	-1573.8392	137.50803	250.00906	-1576.3389	261.53397	64.548531	-1571.1064				270.89963	59.801228	-1517.3129	176.58835	70.876007	-1604.3489	120.47417	51.282715	-1609.6066				167.57251	22.247343	-1665.3076
236	1.175	184.90422	763.57507	-1095.0618	177.65965	768.67706	-1354.9536				367.47208	843.33148	-1257.8983	182.84453	670.05249	-990.4873	221.72264	711.36029	-1019.6521	203.22009	615.43903	-931.3031	161.59915	470.047	-867.92609				215.45505	283.35129	-834.51361	120.91916	343.32019	-852.88312	172.58951	247.72176	-830.45465	263.14859	75.700478	-840.20721				275.81122	63.704296	-906.9621	186.2128	71.641869	-818.19092	124.79692	45.075806	-814.07629				172.85919	24.550194	-749.0318	186.12917	614.61877	-1510.5938	187.66681	711.41968	-1423.9674	138.8374	652.47516	-1455.212	153.03323	481.47006	-1555.3724				186.73526	293.94427	-1597.1721	110.21676	329.25439	-1574.881	136.80067	249.54948	-1577.0463	261.45462	64.552139	-1571.1642				270.81265	59.883331	-1517.3757	176.53772	70.831589	-1604.3812	120.45	51.23082	-1609.5964				167.56825	22.222622	-1665.3348
237	1.18	186.09251	760.61572	-1095.1946	178.50923	765.73096	-1355.1062				368.12473	841.05048	-1258.2659	184.10945	669.03253	-990.50214	223.21199	709.84802	-1019.7448	204.07425	614.48212	-931.10382	161.31563	469.74277	-866.94006				215.0154	283.13373	-833.82764	120.30999	343.04453	-851.9115	172.22972	247.42514	-829.83813	263.10135	75.648865	-840.12946				275.79037	63.762554	-906.90161	186.21432	71.638359	-818.1665	124.80405	45.073624	-814.07239				172.864	24.550943	-749.0307	186.46217	613.48907	-1511.047	188.62482	709.87921	-1424.1437	139.44321	651.57526	-1455.5341	152.24916	480.89047	-1556.5264				185.90315	293.58142	-1598.0148	109.21011	328.74237	-1575.915	136.11255	249.09529	-1577.7471	261.37619	64.556908	-1571.2194				270.72739	59.963974	-1517.4346	176.48898	70.785843	-1604.4109	120.42735	51.176342	-1609.5836				167.56485	22.198538	-1665.3617
238	1.185	187.26604	757.6488	-1095.3198	179.34819	762.76392	-1355.2509				368.76831	838.74414	-1258.632	185.35101	667.99701	-990.53455	224.67853	708.32587	-1019.8453	204.90439	613.5202	-930.9198	161.02882	469.43814	-865.97083				214.58072	282.91235	-833.16205	119.70264	342.76596	-850.95825	171.87134	247.12923	-829.23267	263.05618	75.596046	-840.05835				275.76822	63.818829	-906.84485	186.21274	71.634277	-818.14642	124.80971	45.070301	-814.07196				172.86899	24.553013	-749.03156	186.81396	612.34186	-1511.4911	189.58351	708.32025	-1424.3204	140.06329	650.66046	-1455.8556	151.49068	480.30807	-1557.6738				185.09552	293.21957	-1598.8444	108.2272	328.23474	-1576.9415	135.44388	248.64655	-1578.4417	261.29929	64.562492	-1571.2719				270.64481	60.042645	-1517.4895	176.44252	70.739235	-1604.4386	120.40645	51.119717	-1609.5684				167.56265	22.17461	-1665.3885
239	1.19	188.42189	754.67645	-1095.4379	180.17744	759.77802	-1355.389				369.40414	836.41248	-1258.995	186.56541	666.94702	-990.58502	226.118	706.79468	-1019.9562	205.7083	612.5564	-930.75006	160.73953	469.13544	-865.01434				214.15373	282.6864	-832.51636	119.0992	342.48499	-850.01904	171.51654	246.83394	-828.6355	263.01309	75.542213	-839.99249				275.74503	63.873245	-906.79102	186.20836	71.629402	-818.13007	124.81396	45.065853	-814.07507				172.87428	24.556026	-749.03357	187.18266	611.17932	-1511.9268	190.54373	706.74438	-1424.4977	140.69742	649.73102	-1456.1753	150.75636	479.72482	-1558.8158				184.31161	292.85883	-1599.6631	107.26817	327.73099	-1577.9606	134.79469	248.20325	-1579.1299	261.22427	64.568573	-1571.3223				270.56567	60.119076	-1517.5408	176.39883	70.692162	-1604.4648	120.38746	51.061508	-1609.5518				167.56195	22.150377	-1665.4159
240	1.195	189.55711	751.70026	-1095.5491	180.99789	756.77594	-1355.5228				370.03351	834.05511	-1259.3531	187.74927	665.88354	-990.65387	227.52609	705.25525	-1020.08	206.48415	611.59338	-930.59326	160.44868	468.83707	-864.06604				213.73712	282.45508	-831.88983	118.50188	342.20224	-849.08899	171.16754	246.53918	-828.0437	262.97198	75.487946	-839.92987				275.7211	63.926086	-906.73956	186.20158	71.623543	-818.11664	124.81686	45.060337	-814.0813				172.88011	24.559595	-749.03644	187.56644	610.00348	-1512.3552	191.50633	705.1532	-1424.6749	141.34523	648.78735	-1456.4924	150.04512	479.1424	-1559.9539				183.5507	292.49942	-1600.4722	106.33328	327.23053	-1578.9724	134.16486	247.76529	-1579.8124	261.15164	64.574776	-1571.3706				270.49036	60.193233	-1517.5886	176.35838	70.644867	-1604.4905	120.37054	51.002285	-1609.5347				167.56299	22.125372	-1665.4436
